
nColumns=19
nRows=77
DataType=double
version=3
OpenSimVersion=4.4-2022-10-11-798caa840
endheader
time	ground_force_calcn_r_vx	ground_force_calcn_r_vy	ground_force_calcn_r_vz	ground_force_calcn_r_px	ground_force_calcn_r_py	ground_force_calcn_r_pz	ground_force_calcn_r_mx	ground_force_calcn_r_my	ground_force_calcn_r_mz	ground_force_calcn_l_vx	ground_force_calcn_l_vy	ground_force_calcn_l_vz	ground_force_calcn_l_px	ground_force_calcn_l_py	ground_force_calcn_l_pz	ground_force_calcn_l_mx	ground_force_calcn_l_my	ground_force_calcn_l_mz
0	-127.932	660.725	-27.3909	0.168458	0	-0.205914	0.183283	-0.946593	0.0392418	0	0	0	0	0	0	0	0	0
0.01	-128.812	669.327	-30.3175	0.171837	0	-0.204699	0.145329	-0.755154	0.0342051	0	0	0	0	0	0	0	0	0
0.02	-129.607	679.058	-32.9659	0.176146	0	-0.20323	0.1004	-0.5260320000000001	0.025537	0	0	0	0	0	0	0	0	0
0.03	-130.23	689.675	-35.141	0.180706	0	-0.201775	0.0507506	-0.268767	0.0136945	0	0	0	0	0	0	0	0	0
0.04	-130.584	700.793	-36.7032	0.185395	0	-0.200377	-0.000634558	0.00340542	-0.000178355	0	0	0	0	0	0	0	0	0
0.05	-130.582	711.899	-37.5927	0.190101	0	-0.199064	-0.0505153	0.275397	-0.0145427	0	0	0	0	0	0	0	0	0
0.06	-130.146	722.413	-37.8449	0.194733	0	-0.197847	-0.0958591	0.532092	-0.0278746	0	0	0	0	0	0	0	0	0
0.07000000000000001	-129.225	731.749	-37.578	0.19923	0	-0.196723	-0.134406	0.761086	-0.0390846	0	0	0	0	0	0	0	0	0
0.08	-127.789	739.372	-36.9585	0.203553	0	-0.195672	-0.16495	0.95438	-0.047706	0	0	0	0	0	0	0	0	0
0.09	-125.836	744.8390000000001	-36.159	0.207688	0	-0.194681	-0.187206	1.1081	-0.0537939	0	0	0	0	0	0	0	0	0
0.1	-123.378	747.8390000000001	-35.3203	0.211635	0	-0.193732	-0.201464	1.22114	-0.0576745	0	0	0	0	0	0	0	0	0
0.11	-120.443	748.221	-34.5278	0.215406	0	-0.192813	-0.208209	1.29344	-0.059688	0	0	0	0	0	0	0	0	0
0.12	-117.067	745.998	-33.8052	0.219014	0	-0.191924	-0.207854	1.32453	-0.0600217	0	0	0	0	0	0	0	0	0
0.13	-113.295	741.346	-33.1216	0.222473	0	-0.191069	-0.200693	1.31324	-0.0586724	0	0	0	0	0	0	0	0	0
0.14	-109.184	734.579	-32.4108	0.225798	0	-0.190264	-0.186987	1.25804	-0.0555067	0	0	0	0	0	0	0	0	0
0.15	-104.801	726.129	-31.5985	0.228998	0	-0.18953	-0.167113	1.15786	-0.0503861	0	0	0	0	0	0	0	0	0
0.16	-100.22	716.509	-30.6279	0.232081	0	-0.188894	-0.141692	1.01301	-0.0433021	0	0	0	0	0	0	0	0	0
0.17	-95.51300000000001	706.2809999999999	-29.4757	0.235044	0	-0.188385	-0.111672	0.825774	-0.0344625	0	0	0	0	0	0	0	0	0
0.18	-90.75279999999999	696.014	-28.1535	0.237884	0	-0.188029	-0.0782854	0.600397	-0.0242859	0	0	0	0	0	0	0	0	0
0.19	-86.0027	686.2430000000001	-26.6968	0.240588	0	-0.187852	-0.0429187	0.342462	-0.0133227	0	0	0	0	0	0	0	0	0
0.2	-81.3141	677.452	-25.1452	0.24314	0	-0.187875	-0.00697098	0.0580773	-0.00215567	0	0	0	0	0	0	0	0	0
0.21	-76.7248	670.057	-23.5274	0.245518	0	-0.188112	0.0282781	-0.24696	0.008671379999999999	0	0	0	0	0	0	0	0	0
0.22	-72.259	664.403	-21.8566	0.247702	0	-0.18857	0.0617156	-0.56746	0.0186675	0	0	0	0	0	0	0	0	0
0.23	-67.92959999999999	660.753	-20.1374	0.249675	0	-0.18924	0.0923783	-0.898566	0.0273852	0	0	0	0	0	0	0	0	0
0.24	-63.7419	659.2619999999999	-18.3751	0.251428	0	-0.190101	0.119446	-1.23539	0.0344331	0	0	0	0	0	0	0	0	0
0.25	-59.695	659.97	-16.5837	0.252966	0	-0.191111	0.142251	-1.57268	0.0395183	0	0	0	0	0	0	0	0	0
0.26	-55.7817	662.792	-14.795	0.254309	0	-0.192219	0.160277	-1.9044	0.0425104	0	0	0	0	0	0	0	0	0
0.27	-51.9903	667.535	-13.0583	0.255492	0	-0.193364	0.173195	-2.22376	0.0435012	0	0	0	0	0	0	0	0	0
0.28	-48.3083	673.9109999999999	-11.4359	0.256566	0	-0.194482	0.18091	-2.52374	0.0428265	0	0	0	0	0	0	0	0	0
0.29	-44.7268	681.564	-9.99492	0.257584	0	-0.195513	0.183605	-2.79784	0.0410294	0	0	0	0	0	0	0	0	0
0.3	-41.2391	690.09	-8.79767	0.258605	0	-0.196405	0.181724	-3.04095	0.0387678	0	0	0	0	0	0	0	0	0
0.31	-37.8376	699.064	-7.89172	0.259682	0	-0.197122	0.175903	-3.24989	0.0366879	0	0	0	0	0	0	0	0	0
0.32	-34.5133	708.08	-7.30545	0.260858	0	-0.197635	0.166872	-3.42357	0.0353219	0	0	0	0	0	0	0	0	0
0.33	-31.2557	716.787	-7.0485	0.262158	0	-0.197933	0.15536	-3.56288	0.0350355	0	0	0	0	0	0	0	0	0
0.34	-28.0529	724.921	-7.11302	0.263599	0	-0.198012	0.142035	-3.67037	0.0360141	0	0	0	0	0	0	0	0	0
0.35	-24.8976	732.307	-7.47598	0.265189	0	-0.197878	0.127488	-3.74978	0.0382808	0	0	0	0	0	0	0	0	0
0.36	-21.7894	738.843	-8.103870000000001	0.266927	0	-0.197543	0.112227	-3.80544	0.0417393	0	0	0	0	0	0	0	0	0
0.37	-18.7335	744.48	-8.959210000000001	0.268814	0	-0.197026	0.09666660000000001	-3.84158	0.0462303	0	0	0	0	0	0	0	0	0
0.38	-15.7371	749.206	-10.0041	0.270844	0	-0.196349	0.081118	-3.86184	0.0515671	0	0	0	0	0	0	0	0	0
0.39	-12.8061	753.043	-11.2008	0.273014	0	-0.195536	0.0657964	-3.86906	0.0575484	0	0	0	0	0	0	0	0	0
0.4	-9.94581	756.052	-12.5115	0.275317	0	-0.194619	0.0508462	-3.86519	0.0639627	0	0	0	0	0	0	0	0	0
0.41	-7.15981	758.333	-13.8978	0.277751	0	-0.193629	0.0363659	-3.8517	0.0705894	0	0	0	0	0	0	0	0	0
0.42	-4.44635	760.005	-15.3196	0.280308	0	-0.192601	0.0224082	-3.83019	0.0772062	0	0	0	0	0	0	0	0	0
0.43	-1.79476	761.196	-16.7356	0.282986	0	-0.191568	0.00896631	-3.80281	0.0836083	0	0	0	0	0	0	0	0	0
0.44	0.8172509999999999	762.0359999999999	-18.1061	0.285775	0	-0.190569	-0.00404588	-3.77254	0.08963599999999999	0	0	0	0	0	0	0	0	0
0.45	3.42412	762.659	-19.3967	0.288661	0	-0.189631	-0.0168052	-3.74304	0.0951964	0	0	0	0	0	0	0	0	0
0.46	6.07128	763.203	-20.5812	0.291627	0	-0.188783	-0.0295775	-3.7181	0.100265	0	0	0	0	0	0	0	0	0
0.47	8.81273	763.8049999999999	-21.6439	0.294649	0	-0.188041	-0.0427029	-3.70109	0.104878	0	0	0	0	0	0	0	0	0
0.48	11.7088	764.595	-22.5817	0.297705	0	-0.187418	-0.0565774	-3.69455	0.109116	0	0	0	0	0	0	0	0	0
0.49	14.8213	765.684	-23.4021	0.300768	0	-0.186916	-0.07162010000000001	-3.69997	0.113084	0	0	0	0	0	0	0	0	0
0.5	18.207	767.15	-24.1162	0.303817	0	-0.186536	-0.0882375	-3.71788	0.116875	0	0	0	0	0	0	0	0	0
0.51	21.915	769.029	-24.731	0.306829	0	-0.186271	-0.106812	-3.74819	0.120537	0	0	0	0	0	0	0	0	0
0.52	25.986	771.309	-25.2455	0.309785	0	-0.186114	-0.127703	-3.79044	0.124064	0	0	0	0	0	0	0	0	0
0.53	30.4515	773.936	-25.6508	0.312664	0	-0.186055	-0.151231	-3.8436	0.127389	0	0	0	0	0	0	0	0	0
0.54	35.3308	776.8099999999999	-25.9312	0.315451	0	-0.18608	-0.177645	-3.90583	0.130383	0	0	0	0	0	0	0	0	0
0.55	40.628	779.783	-26.0647	0.31813	0	-0.186178	-0.207075	-3.97445	0.132849	0	0	0	0	0	0	0	0	0
0.5600000000000001	46.3252	782.652	-26.0247	0.32069	0	-0.186335	-0.23949	-4.04612	0.134542	0	0	0	0	0	0	0	0	0
0.57	52.378	785.157	-25.7817	0.323126	0	-0.186534	-0.274659	-4.11719	0.135194	0	0	0	0	0	0	0	0	0
0.58	58.7136	786.982	-25.305	0.325433	0	-0.186762	-0.312142	-4.18387	0.13453	0	0	0	0	0	0	0	0	0
0.59	65.2306	787.753	-24.566	0.327617	0	-0.187002	-0.351278	-4.24218	0.132292	0	0	0	0	0	0	0	0	0
0.6	71.8002	787.037	-23.5414	0.329682	0	-0.187241	-0.391177	-4.28789	0.128257	0	0	0	0	0	0	0	0	0
0.61	78.26739999999999	784.345	-22.217	0.331637	0	-0.187461	-0.430722	-4.31642	0.122265	5.33068	22.1606	-5.14396	0.759022	0	-0.240718	0.15971	0.663945	-0.154116
0.62	84.455	779.1420000000001	-20.5926	0.333493	0	-0.18765	-0.46857	-4.32281	0.114251	4.92053	40.7451	-6.22594	0.796509	0	-0.260279	0.10332	0.855558	-0.130731
0.63	90.1704	770.875	-18.6824	0.335259	0	-0.187794	-0.503192	-4.30184	0.104256	3.83546	64.0471	-7.4672	0.8164360000000001	0	-0.268903	0.0596306	0.9957510000000001	-0.116094
0.64	95.21120000000001	759.001	-16.5147	0.336949	0	-0.187881	-0.532937	-4.24844	0.09243949999999999	1.87004	92.32259999999999	-8.841670000000001	0.82878	0	-0.27337	0.0228102	1.12612	-0.107848
0.65	99.37390000000001	743.019	-14.1305	0.338575	0	-0.187897	-0.556114	-4.15806	0.0790766	-1.2026	125.561	-10.3021	0.837577	0	-0.276008	-0.0120319	1.25623	-0.103071
0.66	102.463	722.508	-11.5839	0.340156	0	-0.187833	-0.571121	-4.0272	0.06456770000000001	-5.61042	163.398	-11.7737	0.84451	0	-0.277709	-0.0475919	1.38607	-0.0998732
0.67	104.301	697.172	-8.94153	0.34171	0	-0.187681	-0.576587	-3.85403	0.0494296	-11.4865	205.157	-13.1419	0.850413	0	-0.278897	-0.0846861	1.51256	-0.0968907
0.68	104.743	666.886	-6.28054	0.343262	0	-0.187431	-0.571546	-3.63897	0.0342708	-18.7545	249.997	-14.2571	0.855734	0	-0.279809	-0.122454	1.63231	-0.0930892
0.6899999999999999	103.687	631.746	-3.68596	0.344841	0	-0.187077	-0.5555600000000001	-3.38494	0.0197496	-27.1477	297.016	-14.9531	0.860719	0	-0.28058	-0.159211	1.74188	-0.08769390000000001
0.7	101.089	592.102	-1.24441	0.346479	0	-0.186617	-0.52881	-3.09735	0.00650963	-36.3353	345.212	-15.0574	0.865501	0	-0.281301	-0.193316	1.83665	-0.0801108
0.71	96.97790000000001	548.548	0.965919	0.348212	0	-0.186049	-0.492171	-2.78393	-0.00490212	-45.9868	393.439	-14.4185	0.870158	0	-0.282022	-0.223255	1.91005	-0.06999850000000001
0.72	91.4567	501.899	2.8814	0.350081	0	-0.185372	-0.447242	-2.45439	-0.0140906	-55.7294	440.505	-12.9533	0.874732	0	-0.282768	-0.247069	1.95292	-0.0574268
0.73	84.7052	453.128	4.45776	0.352125	0	-0.184589	-0.396257	-2.11977	-0.0208537	-65.1469	485.316	-10.6885	0.879236	0	-0.283542	-0.262281	1.95388	-0.0430318
0.74	76.96559999999999	403.305	5.6723	0.354391	0	-0.1837	-0.341879	-1.79147	-0.0251962	-73.8395	526.943	-7.75987	0.883664	0	-0.284333	-0.26655	1.90219	-0.028012
0.75	68.5278	353.52	6.5229	0.356924	0	-0.182707	-0.286888	-1.47999	-0.0273077	-81.45650000000001	564.6799999999999	-4.37486	0.888009	0	-0.285127	-0.258537	1.79225	-0.0138855
0.76	59.7083	304.824	7.02565	0.359775	0	-0.181608	-0.233843	-1.19382	-0.0275155	-87.7471	598.127	-0.762303	0.892278	0	-0.285917	-0.238693	1.62705	-0.00207365
